<svg xmlns="http://www.w3.org/2000/svg" width="1400" height="420" viewBox="0 0 1400 420" role="img" aria-labelledby="title description">
  <title id="title">Customer API architecture</title>
  <desc id="description">Customer API with Clean Architecture, DDD, CQRS and Event Sourcing</desc>
  <defs>
    <linearGradient id="background" x1="0" y1="0" x2="1" y2="1">
      <stop offset="0" stop-color="#14152f"/>
      <stop offset="0.55" stop-color="#512bd4"/>
      <stop offset="1" stop-color="#0078d4"/>
    </linearGradient>
    <radialGradient id="glow" cx="0.2" cy="0.15" r="0.8">
      <stop offset="0" stop-color="#a78bfa" stop-opacity="0.85"/>
      <stop offset="1" stop-color="#a78bfa" stop-opacity="0"/>
    </radialGradient>
    <filter id="shadow" x="-30%" y="-30%" width="160%" height="160%">
      <feDropShadow dx="0" dy="14" stdDeviation="18" flood-color="#090a20" flood-opacity="0.35"/>
    </filter>
  </defs>
  <rect width="1400" height="420" rx="34" fill="url(#background)"/>
  <rect width="1400" height="420" rx="34" fill="url(#glow)"/>
  <g opacity="0.15" stroke="#ffffff" fill="none">
    <circle cx="1195" cy="82" r="170"/>
    <circle cx="1195" cy="82" r="115"/>
    <circle cx="1195" cy="82" r="60"/>
    <path d="M1030 328 C1110 238 1245 360 1390 240"/>
    <path d="M960 370 C1100 260 1250 420 1400 294"/>
  </g>
  <g transform="translate(92 74)" filter="url(#shadow)">
    <rect width="92" height="92" rx="26" fill="#ffffff" fill-opacity="0.14" stroke="#ffffff" stroke-opacity="0.35"/>
    <text x="46" y="61" text-anchor="middle" font-family="Segoe UI,Arial,sans-serif" font-size="43" font-weight="800" fill="#ffffff">CA</text>
  </g>
  <text x="215" y="117" font-family="Segoe UI,Arial,sans-serif" font-size="22" font-weight="700" letter-spacing="5" fill="#dbeafe">REFERENCE ARCHITECTURE</text>
  <text x="88" y="225" font-family="Segoe UI,Arial,sans-serif" font-size="76" font-weight="800" fill="#ffffff">Customer API</text>
  <text x="92" y="278" font-family="Segoe UI,Arial,sans-serif" font-size="27" fill="#e0e7ff">Clean Architecture  /  DDD  /  CQRS  /  Event Store</text>
  <g transform="translate(92 326)" font-family="Segoe UI,Arial,sans-serif" font-size="18" font-weight="600" fill="#ffffff">
    <rect width="126" height="42" rx="21" fill="#ffffff" fill-opacity="0.15"/>
    <text x="63" y="27" text-anchor="middle">.NET 9</text>
    <rect x="142" width="166" height="42" rx="21" fill="#ffffff" fill-opacity="0.15"/>
    <text x="225" y="27" text-anchor="middle">SQL Server</text>
    <rect x="324" width="142" height="42" rx="21" fill="#ffffff" fill-opacity="0.15"/>
    <text x="395" y="27" text-anchor="middle">MongoDB</text>
    <rect x="482" width="116" height="42" rx="21" fill="#ffffff" fill-opacity="0.15"/>
    <text x="540" y="27" text-anchor="middle">Redis</text>
    <rect x="614" width="186" height="42" rx="21" fill="#ffffff" fill-opacity="0.15"/>
    <text x="707" y="27" text-anchor="middle">Blazor Server</text>
  </g>
</svg>
